<svg width="9" height="8" viewBox="0 0 9 8" fill="none" xmlns="http://www.w3.org/2000/svg">
<path fill-rule="evenodd" clip-rule="evenodd" d="M8.52185 1.91667C8.52185 2.69327 7.95198 3.34581 7.18074 3.53083L7.18074 6.91667L6.28667 6.91667L6.28667 3.53083C5.51543 3.34581 4.94556 2.69327 4.94556 1.91667C4.94556 0.996192 5.74614 0.25 6.73371 0.25C7.72127 0.25 8.52185 0.996192 8.52185 1.91667ZM5.83963 1.91667C5.83963 2.3769 6.23992 2.75 6.73371 2.75C7.22749 2.75 7.62778 2.3769 7.62778 1.91667C7.62778 1.45643 7.22749 1.08333 6.73371 1.08333C6.23992 1.08333 5.83963 1.45643 5.83963 1.91667Z" fill="white"/>
<path fill-rule="evenodd" clip-rule="evenodd" d="M0.92224 6.08333C0.92224 5.30673 1.49211 4.65419 2.26335 4.46917L2.26335 1.08333L3.15742 1.08333L3.15742 4.46917C3.92866 4.65419 4.49853 5.30673 4.49853 6.08333C4.49853 7.00381 3.69795 7.75 2.71038 7.75C1.72282 7.75 0.922239 7.00381 0.92224 6.08333ZM1.81631 6.08333C1.81631 6.54357 2.2166 6.91667 2.71038 6.91667C3.20417 6.91667 3.60446 6.54357 3.60446 6.08333C3.60446 5.6231 3.20417 5.25 2.71038 5.25C2.2166 5.25 1.81631 5.6231 1.81631 6.08333Z" fill="white"/>
</svg>
