<svg width="14" height="16" viewBox="0 0 14 16" fill="none" xmlns="http://www.w3.org/2000/svg">
<path d="M11.5 11.75H2.5V10.25H11.5V11.75ZM11.5 8.75H2.5V7.25H11.5V8.75ZM11.5 5.75H2.5V4.25H11.5V5.75ZM0.25 15.5L1.375 14.375L2.5 15.5L3.625 14.375L4.75 15.5L5.875 14.375L7 15.5L8.125 14.375L9.25 15.5L10.375 14.375L11.5 15.5L12.625 14.375L13.75 15.5V0.5L12.625 1.625L11.5 0.5L10.375 1.625L9.25 0.5L8.125 1.625L7 0.5L5.875 1.625L4.75 0.5L3.625 1.625L2.5 0.5L1.375 1.625L0.25 0.5V15.5Z" fill="white"/>
</svg>
