<svg width="45" height="53" viewBox="0 0 45 53" fill="none" xmlns="http://www.w3.org/2000/svg">
<path d="M22.1795 51.868C22.4673 51.868 22.7432 51.7739 22.9711 51.6706C23.2105 51.5621 23.4628 51.4131 23.7197 51.2392C24.234 50.8915 24.8281 50.4065 25.4664 49.8327C26.7462 48.681 28.2675 47.1216 29.7884 45.4601C32.8241 42.1425 35.927 38.3477 37.1748 36.4824C37.2707 36.3386 37.3658 36.1961 37.4602 36.0549C41.025 30.7294 43.3472 27.2588 43.3472 20.9961C43.3472 10.1307 33.8109 1.42484 22.1795 1.42484C10.5479 1.42484 1.01178 10.1307 1.01178 20.9961C1.01178 27.4471 3.2763 30.902 7.00208 36.4811C8.33435 38.4771 11.485 42.2745 14.546 45.5595C16.0799 47.2052 17.6089 48.7425 18.8933 49.8732C19.5339 50.4366 20.1295 50.9137 20.6447 51.2536C20.9021 51.4248 21.1544 51.5699 21.3934 51.6758C21.6214 51.7778 21.8953 51.868 22.1795 51.868Z" fill="#47623F" stroke="white" stroke-width="2"/>
</svg>
