<svg width="30" height="34" viewBox="0 0 30 34" fill="none" xmlns="http://www.w3.org/2000/svg">
<path d="M29.9999 10.6239V24.1539C29.9999 25.8039 28.6499 27.1539 26.9999 27.1539H5.99994L-6.10352e-05 33.1539V6.15393C-6.10352e-05 4.50393 1.34994 3.15393 2.99994 3.15393H18.1499C18.0599 3.63393 17.9999 4.14393 17.9999 4.65393C17.9999 8.79393 21.3599 12.1539 25.4999 12.1539C27.1949 12.1539 28.7399 11.5689 29.9999 10.6239ZM20.9999 4.65393C20.9999 7.14393 23.0099 9.15393 25.4999 9.15393C27.9899 9.15393 29.9999 7.14393 29.9999 4.65393C29.9999 2.16393 27.9899 0.153931 25.4999 0.153931C23.0099 0.153931 20.9999 2.16393 20.9999 4.65393Z" fill="white"/>
</svg>
