<svg width="24" height="30" viewBox="0 0 24 30" fill="none" xmlns="http://www.w3.org/2000/svg">
<g clip-path="url(#clip0)">
<path fill-rule="evenodd" clip-rule="evenodd" d="M8.79951 8.63013C8.86572 8.34749 8.9946 8.07529 9.18781 7.83486C9.84942 7.01152 11.0372 6.84459 11.9001 7.45366C12.1527 7.63192 12.3519 7.85866 12.4935 8.11277C15.4793 8.54725 18.088 11.0256 18.6529 15.0453C19.0182 17.6444 19.7504 19.0338 20.874 19.961C21.1525 20.1908 22.1083 20.8353 22.217 20.9184C22.4258 21.078 22.5633 21.3134 22.5999 21.5736L22.8782 23.5542C22.9551 24.1011 22.574 24.6067 22.0271 24.6836L16.9513 25.397C16.8407 26.407 16.35 27.3469 15.5174 28.0307C14.3568 28.9838 12.7608 29.2081 11.3824 28.6118C10.262 28.1271 9.59244 27.5037 9.24077 26.4806L4.20231 27.1887C3.6554 27.2656 3.14974 26.8845 3.07287 26.3376L2.79453 24.3571C2.75795 24.0968 2.82529 23.8327 2.98197 23.6217C3.07045 23.5034 3.80758 22.6279 4.01067 22.3334C4.83528 21.1374 5.15573 19.602 4.78916 16.9937C4.22261 12.9625 6.04497 9.86763 8.79951 8.63013ZM11.3111 26.1896C11.4876 26.4302 11.7536 26.5933 12.1765 26.7762C12.8671 27.0749 13.6667 26.9625 14.2481 26.485C14.5174 26.2639 14.7141 25.9938 14.8345 25.6944L11.3111 26.1896Z" fill="url(#paint0_linear)"/>
</g>
<path d="M20.05 8C20.05 11.8338 16.8233 15 12.77 15C8.71665 15 5.48999 11.8338 5.48999 8C5.48999 4.16615 8.71665 1 12.77 1C16.8233 1 20.05 4.16615 20.05 8Z" fill="#FF9A00" stroke="white" stroke-width="2"/>
<defs>
<linearGradient id="paint0_linear" x1="4.54332" y1="-18.3849" x2="24.1509" y2="-16.9857" gradientUnits="userSpaceOnUse">
<stop stop-color="#53B2FC"/>
<stop offset="1" stop-color="#127CCE"/>
</linearGradient>
<clipPath id="clip0">
<rect width="24" height="24" fill="white" transform="translate(0 6)"/>
</clipPath>
</defs>
</svg>
