<svg width="20" height="24" viewBox="0 0 20 24" fill="none" xmlns="http://www.w3.org/2000/svg">
<path d="M17 4.99998H14.6667C14.6667 2.42165 12.5784 0.333313 10 0.333313C7.42169 0.333313 5.33335 2.42165 5.33335 4.99998H3.00002C1.71669 4.99998 0.666687 6.04998 0.666687 7.33331V21.3333C0.666687 22.6166 1.71669 23.6666 3.00002 23.6666H17C18.2834 23.6666 19.3334 22.6166 19.3334 21.3333V7.33331C19.3334 6.04998 18.2834 4.99998 17 4.99998ZM7.66669 9.66665C7.66669 10.3083 7.14169 10.8333 6.50002 10.8333C5.85835 10.8333 5.33335 10.3083 5.33335 9.66665V7.33331H7.66669V9.66665ZM10 2.66665C11.2834 2.66665 12.3334 3.71665 12.3334 4.99998H7.66669C7.66669 3.71665 8.71669 2.66665 10 2.66665ZM14.6667 9.66665C14.6667 10.3083 14.1417 10.8333 13.5 10.8333C12.8584 10.8333 12.3334 10.3083 12.3334 9.66665V7.33331H14.6667V9.66665Z" fill="url(#paint0_linear)"/>
<defs>
<linearGradient id="paint0_linear" x1="-18" y1="-21.25" x2="-31.515" y2="12.6859" gradientUnits="userSpaceOnUse">
<stop stop-color="#3AB648"/>
<stop offset="1" stop-color="#526430"/>
</linearGradient>
</defs>
</svg>
